<svg width="23" height="23" viewBox="0 0 23 23" fill="none" xmlns="http://www.w3.org/2000/svg">
<path d="M5.92188 14.9219H0.734375C0.484375 14.8802 0.296875 14.75 0.171875 14.5312L1.5 9.34375C1.71875 8.83333 2.19792 8.45312 2.9375 8.20312C4.20833 7.98438 7.47917 7.80208 8.75 7.65625C9.16667 6.6875 9.60417 3.72396 10.0625 2.76562C10.5312 2.02604 11.0573 1.54688 11.6406 1.32812L17.2188 0C17.4062 0.125 17.4844 0.3125 17.4531 0.5625L16.0781 7.10938C17.3281 7.06771 20.5781 7.0625 21.8281 7.09375C22.1094 7.28125 22.224 7.57292 22.1719 7.96875C21.6302 10.5417 20.9948 12.7083 20.2656 14.4688C20.0677 14.8021 19.8073 14.9531 19.4844 14.9219H13.7031L12.9844 19.3125C12.9115 19.6354 12.6823 19.8958 12.2969 20.0938C10.3073 20.8229 7.94792 21.4583 5.21875 22C4.80208 22.0521 4.54167 21.9375 4.4375 21.6562C4.875 20.0833 5.36979 18.5052 5.92188 14.9219Z" fill="#ffffff"/>
</svg>